# xmcd CD database file
#
# Track frame offsets:
#	150
#	18675
#	31805
#	44565
#	55913
#	67020
#	78715
#	91300
#	104450
#	113963
#	125610
#	140628
#	154208
#	168648
#
# Disc length: 2400 seconds
#
# Revision: 2
# Processed by: cddbd v1.5.1PL0 Copyright (c) Steve Scherf et al.
# Submitted via: CDex 1.51
#
DISCID=cd095e0e
DTITLE=Charlie Parker - The Genius of Charlie Parker
DYEAR=1945
DGENRE=Jazz
TTITLE0=Bird Gets the Worm
TTITLE1=Bluebird
TTITLE2=Klaunstance
TTITLE3=Barbados
TTITLE4=Merry Go Round
TTITLE5=Donna Lee
TTITLE6=Chasing the Bird
TTITLE7=Koko
TTITLE8=Perhaps
TTITLE9=Warming Up A Riff
TTITLE10=Slim's Jam
TTITLE11=Popity Pop
TTITLE12=Dizzy Boogie
TTITLE13=Flat Foot Floogie
EXTD=Savoy Jazz  SV-0104\n\nEntry: Mike Lempriere  mikel@speakeasy.org  13-Mar-1997\n YEAR: 1945
EXTT0=
EXTT1=
EXTT2=
EXTT3=
EXTT4=
EXTT5=
EXTT6=
EXTT7=
EXTT8=
EXTT9=
EXTT10=
EXTT11=
EXTT12=
EXTT13=
PLAYORDER=
